# xmcd CD database file
#
# Track frame offsets:
#	150
#	15049
#	27892
#	41792
#	54553
#	67251
#	81860
#	95911
#	112729
#	126628
#	139199
#	153849
#
# Disc length: 2279 seconds
#
# Revision: 2
# Processed by: cddbd v1.4b41PL1 Copyright (c) Steve Scherf et al.
# Submitted via: Feurio! 1.50.2ß - http://www.feurio.com
#
DISCID=9f08e50c
DTITLE=GEORGOPOULOS SPIROS - AN EHIS FERI AGAPI MAZISOU
DYEAR=1900
DGENRE=
TTITLE0=OUTE KI EGO
TTITLE1=AN EHIS FERI AGAPI MAZI SOU
TTITLE2=ITAN O PROIN ANTRA SOU
TTITLE3=ROTISE TIN NA SOU PI
TTITLE4=MI ME KITAZIS
TTITLE5=POS GINETE LIPON
TTITLE6=I ENOHES
TTITLE7=TO KATHISMA TOU AUTOKINI TOU
TTITLE8=TORA KI DIO PONAME
TTITLE9=DEN TO SHOLIAZO TO THEMA
TTITLE10=ST' ALITHIA AGAPANE
TTITLE11=GI AUTON TON EROTA EGO
EXTD=
EXTT0=
EXTT1=
EXTT2=
EXTT3=
EXTT4=
EXTT5=
EXTT6=
EXTT7=
EXTT8=
EXTT9=
EXTT10=
EXTT11=
PLAYORDER=
